<svg xmlns="http://www.w3.org/2000/svg" viewBox="0 0 880 460" font-family="'Inter', system-ui, -apple-system, sans-serif">
  <style>
    .bg { fill: #fff }
    .card { fill: #fafafa; stroke: #e5e5e5 }
    .card-inner { fill: #fff; stroke: #e5e5e5 }
    .t1 { fill: #0a0a0a; font-size: 15px; font-weight: 700 }
    .t2 { fill: #0a0a0a; font-size: 12px; font-weight: 600 }
    .t3 { fill: #525252; font-size: 11px }
    .t4 { fill: #a3a3a3; font-size: 10px }
    .t5 { fill: #737373; font-size: 9px; font-weight: 500 }
    .conn { stroke: #d4d4d4; stroke-width: 1; fill: none }
    .conn-dash { stroke: #d4d4d4; stroke-width: 1; fill: none; stroke-dasharray: 4 2 }
    @media (prefers-color-scheme: dark) {
      .bg { fill: #0a0a0a }
      .card { fill: #171717; stroke: #262626 }
      .card-inner { fill: #1c1c1c; stroke: #2a2a2a }
      .t1 { fill: #fafafa }
      .t2 { fill: #fafafa }
      .t3 { fill: #a3a3a3 }
      .t4 { fill: #525252 }
      .t5 { fill: #737373 }
      .conn { stroke: #333 }
      .conn-dash { stroke: #333 }
    }
  </style>
  <defs>
    <marker id="a" markerWidth="6" markerHeight="5" refX="5.5" refY="2.5" orient="auto"><path d="M0,0 L6,2.5 L0,5" fill="#a3a3a3"/></marker>
    <marker id="ao" markerWidth="6" markerHeight="5" refX="5.5" refY="2.5" orient="auto"><path d="M0,0 L6,2.5 L0,5" fill="#f59e0b"/></marker>
    <marker id="ap" markerWidth="6" markerHeight="5" refX="5.5" refY="2.5" orient="auto"><path d="M0,0 L6,2.5 L0,5" fill="#ec4899"/></marker>
    <marker id="ar" markerWidth="6" markerHeight="5" refX="5.5" refY="2.5" orient="auto"><path d="M0,0 L6,2.5 L0,5" fill="#64748b"/></marker>
    <marker id="ab" markerWidth="6" markerHeight="5" refX="5.5" refY="2.5" orient="auto"><path d="M0,0 L6,2.5 L0,5" fill="#3b82f6"/></marker>
    <marker id="av" markerWidth="6" markerHeight="5" refX="5.5" refY="2.5" orient="auto"><path d="M0,0 L6,2.5 L0,5" fill="#8b5cf6"/></marker>
  </defs>

  <!-- Background -->
  <rect class="bg" width="880" height="460" rx="0"/>

  <!-- Title -->
  <text class="t1" x="440" y="28" text-anchor="middle" letter-spacing="-0.3">k6-ec2 Architecture</text>

  <!-- ── Terraform Module (left sidebar) ── -->
  <rect class="card" x="20" y="50" width="150" height="210" rx="8" stroke-width="1"/>
  <rect x="20" y="50" width="3" height="210" rx="1.5" fill="#a855f7"/>
  <text class="t2" x="36" y="72">Terraform</text>
  <text class="t4" x="36" y="86">One-time setup</text>
  <line class="conn" x1="36" y1="94" x2="156" y2="94"/>
  <text class="t3" x="36" y="114">IAM Role / Profile</text>
  <text class="t3" x="36" y="134">IAM Policy</text>
  <text class="t3" x="36" y="154">Security Group</text>
  <text class="t3" x="36" y="174">CW Log Group</text>
  <text class="t3" x="36" y="194">Elastic IP</text>
  <text class="t4" x="36" y="208" font-style="italic">optional</text>
  <text class="t4" x="95" y="248" text-anchor="middle" font-style="italic">persists across runs</text>

  <!-- Arrow: Terraform → CLI -->
  <line x1="170" y1="78" x2="198" y2="78" class="conn-dash" marker-end="url(#a)"/>

  <!-- ── k6-ec2 CLI ── -->
  <rect class="card" x="208" y="50" width="140" height="50" rx="8" stroke-width="1"/>
  <rect x="208" y="50" width="140" height="3" rx="1.5" fill="#6366f1"/>
  <text class="t1" x="278" y="73" text-anchor="middle" font-size="14">k6-ec2</text>
  <text class="t4" x="278" y="88" text-anchor="middle">CLI Orchestrator</text>

  <!-- Vertical line from CLI to pipeline -->
  <line x1="278" y1="100" x2="278" y2="120" class="conn" marker-end="url(#a)"/>

  <!-- ── Pipeline Stepper ── -->
  <!-- Connecting horizontal line -->
  <line x1="310" y1="140" x2="752" y2="140" stroke="#e5e5e5" stroke-width="1"/>

  <!-- launch -->
  <circle cx="310" cy="140" r="14" fill="#f59e0b"/>
  <text x="310" y="144" fill="#fff" font-size="9" font-weight="700" text-anchor="middle">1</text>
  <text class="t2" x="310" y="170" text-anchor="middle" fill="#f59e0b" font-size="11">launch</text>
  <text class="t4" x="310" y="183" text-anchor="middle">Resolve AMI</text>
  <text class="t4" x="310" y="194" text-anchor="middle">RunInstances</text>

  <!-- execute -->
  <circle cx="530" cy="140" r="14" fill="#ec4899"/>
  <text x="530" y="144" fill="#fff" font-size="9" font-weight="700" text-anchor="middle">2</text>
  <text class="t2" x="530" y="170" text-anchor="middle" fill="#ec4899" font-size="11">execute</text>
  <text class="t4" x="530" y="183" text-anchor="middle">SSM SendCommand</text>
  <text class="t4" x="530" y="194" text-anchor="middle">Script transfer + k6 run</text>

  <!-- cleanup -->
  <circle cx="753" cy="140" r="14" fill="#64748b"/>
  <text x="753" y="144" fill="#fff" font-size="9" font-weight="700" text-anchor="middle">3</text>
  <text class="t2" x="753" y="170" text-anchor="middle" fill="#64748b" font-size="11">cleanup</text>
  <text class="t4" x="753" y="183" text-anchor="middle">Terminate</text>

  <!-- ── EC2 Instances ── -->
  <rect class="card" x="370" y="215" width="310" height="175" rx="8" stroke-width="1"/>
  <rect x="370" y="215" width="310" height="3" rx="1.5" fill="#f59e0b"/>

  <text class="t2" x="525" y="237" text-anchor="middle">EC2 Instances</text>

  <!-- Instance 0 -->
  <rect class="card-inner" x="385" y="248" width="280" height="34" rx="6" stroke-width="1"/>
  <circle cx="402" cy="265" r="6" fill="#6366f1"/>
  <text x="402" y="268" fill="#fff" font-size="7" font-weight="700" text-anchor="middle">0</text>
  <text class="t3" x="418" y="269">Instance 0 — k6 runner</text>
  <rect x="610" y="254" width="46" height="18" rx="9" fill="#eff6ff" stroke="#bfdbfe" stroke-width="0.5"/>
  <text x="633" y="266" fill="#3b82f6" font-size="8" font-weight="600" text-anchor="middle">On-Dem</text>

  <!-- Instance 1 -->
  <rect class="card-inner" x="385" y="290" width="280" height="34" rx="6" stroke-width="1"/>
  <circle cx="402" cy="307" r="6" fill="#6366f1"/>
  <text x="402" y="310" fill="#fff" font-size="7" font-weight="700" text-anchor="middle">1</text>
  <text class="t3" x="418" y="311">Instance 1 — k6 runner</text>
  <rect x="610" y="296" width="46" height="18" rx="9" fill="#fff7ed" stroke="#fed7aa" stroke-width="0.5"/>
  <text x="633" y="308" fill="#f59e0b" font-size="8" font-weight="600" text-anchor="middle">Spot</text>

  <!-- Instance N -->
  <rect class="card-inner" x="385" y="332" width="280" height="34" rx="6" stroke-width="1"/>
  <circle cx="402" cy="349" r="6" fill="#f59e0b"/>
  <text x="402" y="352" fill="#fff" font-size="7" font-weight="700" text-anchor="middle">N</text>
  <text class="t3" x="418" y="353">Instance N — k6 runner</text>
  <rect x="610" y="338" width="46" height="18" rx="9" fill="#fff7ed" stroke="#fed7aa" stroke-width="0.5"/>
  <text x="633" y="350" fill="#f59e0b" font-size="8" font-weight="600" text-anchor="middle">Spot</text>

  <text class="t4" x="525" y="383" text-anchor="middle" font-style="italic">Managed via SSM Run Command</text>

  <!-- Arrow: launch → EC2 -->
  <path d="M 310 194 L 310 260 L 366 260" fill="none" stroke="#f59e0b" stroke-width="1" marker-end="url(#ao)"/>

  <!-- Arrow: execute → EC2 -->
  <line x1="530" y1="194" x2="530" y2="211" stroke="#ec4899" stroke-width="1" marker-end="url(#ap)"/>

  <!-- Arrow: cleanup → EC2 (terminate) -->
  <path d="M 753 183 L 753 310 L 684 310" fill="none" stroke="#64748b" stroke-width="1" stroke-dasharray="4 2" marker-end="url(#ar)"/>

  <!-- ── CloudWatch Logs ── -->
  <rect class="card" x="20" y="320" width="140" height="45" rx="8" stroke-width="1"/>
  <rect x="20" y="320" width="3" height="45" rx="1.5" fill="#3b82f6"/>
  <text class="t2" x="36" y="342">CloudWatch Logs</text>
  <text class="t4" x="36" y="356">Real-time streaming</text>

  <!-- Arrow: EC2 → CloudWatch -->
  <path d="M 370 350 L 164 350" fill="none" stroke="#3b82f6" stroke-width="1" stroke-dasharray="4 2" marker-end="url(#ab)"/>
  <text class="t5" x="270" y="344" fill="#3b82f6" text-anchor="middle">stream logs</text>

  <!-- Arrow: CloudWatch → CLI -->
  <path d="M 90 320 L 90 300 Q 90 290 100 290 L 260 290 Q 270 290 270 280 L 270 104" fill="none" stroke="#3b82f6" stroke-width="1" marker-end="url(#ab)"/>
  <text class="t5" x="200" y="286" fill="#3b82f6" text-anchor="middle">tail</text>

  <!-- ── Outputs ── -->
  <!-- stdout -->
  <rect class="card" x="20" y="400" width="140" height="40" rx="8" stroke-width="1"/>
  <rect x="20" y="400" width="3" height="40" rx="1.5" fill="#6366f1"/>
  <text class="t2" x="36" y="420" font-size="11">Summary</text>
  <text class="t4" x="36" y="434">&#x2192; stdout</text>

  <!-- Metrics Backend -->
  <rect class="card" x="710" y="400" width="150" height="40" rx="8" stroke-width="1"/>
  <rect x="710" y="400" width="3" height="40" rx="1.5" fill="#8b5cf6"/>
  <text class="t2" x="726" y="420" font-size="11">Metrics Backend</text>
  <text class="t4" x="726" y="434">StatsD &#x2192; Datadog / InfluxDB</text>

  <!-- Arrow: EC2 → Metrics -->
  <path d="M 680 350 L 740 350 L 740 396" fill="none" stroke="#8b5cf6" stroke-width="1" marker-end="url(#av)"/>
  <text class="t5" x="720" y="370" fill="#8b5cf6">StatsD</text>

  <!-- State file indicator -->
  <rect x="290" y="200" width="62" height="18" rx="9" fill="none" stroke="#d4d4d4" stroke-width="1" stroke-dasharray="3 2"/>
  <text class="t4" x="321" y="213" text-anchor="middle" font-style="italic">state file</text>
</svg>
